<svg width="30" height="31" viewBox="0 0 30 31" fill="none" xmlns="http://www.w3.org/2000/svg">
<path d="M22.6169 13.4761C23.2639 13.4761 23.7884 12.9516 23.7884 12.3046C23.7884 11.6576 23.2639 11.1331 22.6169 11.1331C21.9699 11.1331 21.4454 11.6576 21.4454 12.3046C21.4454 12.9516 21.9699 13.4761 22.6169 13.4761Z" fill="#1F1535"/>
<path d="M25.3125 2.3445H23.7885V1.1715C23.7885 0.525 23.2635 0 22.617 0C21.9705 0 21.4455 0.525 21.4455 1.1715V2.343H16.113V1.1715C16.113 0.525 15.588 0 14.9415 0C14.295 0 13.77 0.525 13.77 1.1715V2.343H8.496V1.1715C8.496 0.525 7.971 0 7.3245 0C6.678 0 6.153 0.525 6.153 1.1715V2.343H4.6875C2.103 2.3445 0 4.446 0 7.032V25.314C0 27.897 2.103 30 4.6875 30H13.653C14.2995 30 14.8245 29.475 14.8245 28.8285C14.8245 28.182 14.2995 27.657 13.653 27.657H4.6875C3.3945 27.657 2.343 26.6055 2.343 25.3125V7.032C2.343 5.739 3.3945 4.6875 4.6875 4.6875H6.153V5.859C6.153 6.5055 6.678 7.0305 7.3245 7.0305C7.971 7.0305 8.496 6.5055 8.496 5.859V4.6875H13.77V5.859C13.77 6.5055 14.295 7.0305 14.9415 7.0305C15.588 7.0305 16.113 6.5055 16.113 5.859V4.6875H21.4455V5.859C21.4455 6.5055 21.9705 7.0305 22.617 7.0305C23.2635 7.0305 23.7885 6.5055 23.7885 5.859V4.6875H25.3125C26.6055 4.6875 27.657 5.739 27.657 7.032V13.7115C27.657 14.358 28.182 14.883 28.8285 14.883C29.475 14.883 30 14.358 30 13.7115V7.032C30 4.446 27.897 2.3445 25.3125 2.3445Z" fill="#1F1535"/>
<path d="M22.9095 15.8206C19.0005 15.8206 15.819 19.0006 15.819 22.9111C15.819 26.8216 18.999 30.0016 22.9095 30.0016C26.82 30.0016 29.9999 26.8216 29.9999 22.9111C29.9999 19.0006 26.82 15.8206 22.9095 15.8206ZM22.9095 27.6571C20.292 27.6571 18.1635 25.5286 18.1635 22.9111C18.1635 20.2936 20.292 18.1651 22.9095 18.1651C25.527 18.1651 27.6554 20.2936 27.6554 22.9111C27.6554 25.5286 25.527 27.6571 22.9095 27.6571Z" fill="#1F1535"/>
<path d="M24.609 21.738H24.081V20.508C24.081 19.8615 23.556 19.3365 22.9095 19.3365C22.263 19.3365 21.738 19.8615 21.738 20.508V22.9111C21.738 23.5576 22.263 24.0826 22.9095 24.0826H24.609C25.2555 24.0826 25.7805 23.5576 25.7805 22.9111C25.7805 22.2645 25.257 21.738 24.609 21.738Z" fill="#1F1535"/>
<path d="M17.52 13.4761C18.167 13.4761 18.6915 12.9516 18.6915 12.3046C18.6915 11.6576 18.167 11.1331 17.52 11.1331C16.873 11.1331 16.3485 11.6576 16.3485 12.3046C16.3485 12.9516 16.873 13.4761 17.52 13.4761Z" fill="#1F1535"/>
<path d="M12.4215 18.5744C13.0685 18.5744 13.593 18.0499 13.593 17.4029C13.593 16.7559 13.0685 16.2314 12.4215 16.2314C11.7745 16.2314 11.25 16.7559 11.25 17.4029C11.25 18.0499 11.7745 18.5744 12.4215 18.5744Z" fill="#1F1535"/>
<path d="M7.32445 13.4761C7.97146 13.4761 8.49595 12.9516 8.49595 12.3046C8.49595 11.6576 7.97146 11.1331 7.32445 11.1331C6.67745 11.1331 6.15295 11.6576 6.15295 12.3046C6.15295 12.9516 6.67745 13.4761 7.32445 13.4761Z" fill="#1F1535"/>
<path d="M7.32445 18.5744C7.97146 18.5744 8.49595 18.0499 8.49595 17.4029C8.49595 16.7559 7.97146 16.2314 7.32445 16.2314C6.67745 16.2314 6.15295 16.7559 6.15295 17.4029C6.15295 18.0499 6.67745 18.5744 7.32445 18.5744Z" fill="#1F1535"/>
<path d="M7.32445 23.6715C7.97146 23.6715 8.49595 23.147 8.49595 22.5C8.49595 21.853 7.97146 21.3285 7.32445 21.3285C6.67745 21.3285 6.15295 21.853 6.15295 22.5C6.15295 23.147 6.67745 23.6715 7.32445 23.6715Z" fill="#1F1535"/>
<path d="M12.4215 23.6715C13.0685 23.6715 13.593 23.147 13.593 22.5C13.593 21.853 13.0685 21.3285 12.4215 21.3285C11.7745 21.3285 11.25 21.853 11.25 22.5C11.25 23.147 11.7745 23.6715 12.4215 23.6715Z" fill="#1F1535"/>
<path d="M12.4215 13.4761C13.0685 13.4761 13.593 12.9516 13.593 12.3046C13.593 11.6576 13.0685 11.1331 12.4215 11.1331C11.7745 11.1331 11.25 11.6576 11.25 12.3046C11.25 12.9516 11.7745 13.4761 12.4215 13.4761Z" fill="#1F1535"/>
</svg>
