<svg width="24" height="25" viewBox="0 0 24 25" fill="none" xmlns="http://www.w3.org/2000/svg">
<path d="M18.0936 10.7809C18.6112 10.7809 19.0308 10.3613 19.0308 9.84369C19.0308 9.32609 18.6112 8.90649 18.0936 8.90649C17.576 8.90649 17.1564 9.32609 17.1564 9.84369C17.1564 10.3613 17.576 10.7809 18.0936 10.7809Z" fill="#1F1535"/>
<path d="M20.25 1.8756H19.0308V0.9372C19.0308 0.42 18.6108 0 18.0936 0C17.5764 0 17.1564 0.42 17.1564 0.9372V1.8744H12.8904V0.9372C12.8904 0.42 12.4704 0 11.9532 0C11.436 0 11.016 0.42 11.016 0.9372V1.8744H6.7968V0.9372C6.7968 0.42 6.3768 0 5.8596 0C5.3424 0 4.9224 0.42 4.9224 0.9372V1.8744H3.75C1.6824 1.8756 0 3.5568 0 5.6256V20.2512C0 22.3176 1.6824 24 3.75 24H10.9224C11.4396 24 11.8596 23.58 11.8596 23.0628C11.8596 22.5456 11.4396 22.1256 10.9224 22.1256H3.75C2.7156 22.1256 1.8744 21.2844 1.8744 20.25V5.6256C1.8744 4.5912 2.7156 3.75 3.75 3.75H4.9224V4.6872C4.9224 5.2044 5.3424 5.6244 5.8596 5.6244C6.3768 5.6244 6.7968 5.2044 6.7968 4.6872V3.75H11.016V4.6872C11.016 5.2044 11.436 5.6244 11.9532 5.6244C12.4704 5.6244 12.8904 5.2044 12.8904 4.6872V3.75H17.1564V4.6872C17.1564 5.2044 17.5764 5.6244 18.0936 5.6244C18.6108 5.6244 19.0308 5.2044 19.0308 4.6872V3.75H20.25C21.2844 3.75 22.1256 4.5912 22.1256 5.6256V10.9692C22.1256 11.4864 22.5456 11.9064 23.0628 11.9064C23.58 11.9064 24 11.4864 24 10.9692V5.6256C24 3.5568 22.3176 1.8756 20.25 1.8756Z" fill="#1F1535"/>
<path d="M18.3277 12.6565C15.2005 12.6565 12.6553 15.2005 12.6553 18.3289C12.6553 21.4573 15.1993 24.0013 18.3277 24.0013C21.4561 24.0013 24.0001 21.4573 24.0001 18.3289C24.0001 15.2005 21.4561 12.6565 18.3277 12.6565ZM18.3277 22.1257C16.2337 22.1257 14.5309 20.4229 14.5309 18.3289C14.5309 16.2349 16.2337 14.5321 18.3277 14.5321C20.4217 14.5321 22.1245 16.2349 22.1245 18.3289C22.1245 20.4229 20.4217 22.1257 18.3277 22.1257Z" fill="#1F1535"/>
<path d="M19.6872 17.3904H19.2648V16.4064C19.2648 15.8892 18.8448 15.4692 18.3276 15.4692C17.8104 15.4692 17.3904 15.8892 17.3904 16.4064V18.3288C17.3904 18.846 17.8104 19.266 18.3276 19.266H19.6872C20.2044 19.266 20.6244 18.846 20.6244 18.3288C20.6244 17.8116 20.2056 17.3904 19.6872 17.3904Z" fill="#1F1535"/>
<path d="M14.0161 10.7809C14.5337 10.7809 14.9533 10.3613 14.9533 9.84369C14.9533 9.32609 14.5337 8.90649 14.0161 8.90649C13.4985 8.90649 13.0789 9.32609 13.0789 9.84369C13.0789 10.3613 13.4985 10.7809 14.0161 10.7809Z" fill="#1F1535"/>
<path d="M9.9372 14.8595C10.4548 14.8595 10.8744 14.4399 10.8744 13.9223C10.8744 13.4047 10.4548 12.9851 9.9372 12.9851C9.4196 12.9851 9 13.4047 9 13.9223C9 14.4399 9.4196 14.8595 9.9372 14.8595Z" fill="#1F1535"/>
<path d="M5.85965 10.7809C6.37726 10.7809 6.79685 10.3613 6.79685 9.84369C6.79685 9.32609 6.37726 8.90649 5.85965 8.90649C5.34205 8.90649 4.92245 9.32609 4.92245 9.84369C4.92245 10.3613 5.34205 10.7809 5.85965 10.7809Z" fill="#1F1535"/>
<path d="M5.85965 14.8595C6.37726 14.8595 6.79685 14.4399 6.79685 13.9223C6.79685 13.4047 6.37726 12.9851 5.85965 12.9851C5.34205 12.9851 4.92245 13.4047 4.92245 13.9223C4.92245 14.4399 5.34205 14.8595 5.85965 14.8595Z" fill="#1F1535"/>
<path d="M5.85965 18.9371C6.37726 18.9371 6.79685 18.5175 6.79685 17.9999C6.79685 17.4823 6.37726 17.0627 5.85965 17.0627C5.34205 17.0627 4.92245 17.4823 4.92245 17.9999C4.92245 18.5175 5.34205 18.9371 5.85965 18.9371Z" fill="#1F1535"/>
<path d="M9.9372 18.9371C10.4548 18.9371 10.8744 18.5175 10.8744 17.9999C10.8744 17.4823 10.4548 17.0627 9.9372 17.0627C9.4196 17.0627 9 17.4823 9 17.9999C9 18.5175 9.4196 18.9371 9.9372 18.9371Z" fill="#1F1535"/>
<path d="M9.9372 10.7809C10.4548 10.7809 10.8744 10.3613 10.8744 9.84369C10.8744 9.32609 10.4548 8.90649 9.9372 8.90649C9.4196 8.90649 9 9.32609 9 9.84369C9 10.3613 9.4196 10.7809 9.9372 10.7809Z" fill="#1F1535"/>
</svg>
