<svg width="36" height="36" viewBox="0 0 36 36" fill="none" xmlns="http://www.w3.org/2000/svg">
<path d="M31.5 0H4.5C2.01819 0 0 2.01819 0 4.5V31.5C0 33.9818 2.01819 36 4.5 36H31.5C33.9818 36 36 33.9818 36 31.5V4.5C36 2.01819 33.9818 0 31.5 0ZM4.5 3H31.5C32.3273 3 33 3.67273 33 4.5V15.1289L28.0605 10.1895C27.4746 9.60388 26.5254 9.60388 25.9395 10.1895L15.375 20.7539L11.5605 16.9395C10.9746 16.3539 10.0254 16.3539 9.43945 16.9395L3 23.3789V4.5C3 3.67273 3.67273 3 4.5 3ZM31.5 33H4.5C3.67273 33 3 32.3273 3 31.5V27.6211L10.5 20.1211L19.1895 28.8098C19.4828 29.1039 19.8658 29.25 20.25 29.25C20.6342 29.25 21.0172 29.1039 21.3105 28.8105C21.8961 28.2246 21.8961 27.2754 21.3105 26.6895L17.4961 22.875L27 13.3718L33 19.3718V31.5C33 32.3273 32.3273 33 31.5 33Z" fill="#1F1535"/>
<path d="M12 9C12 10.6567 10.6567 12 9 12C7.34326 12 6 10.6567 6 9C6 7.34326 7.34326 6 9 6C10.6567 6 12 7.34326 12 9Z" fill="#1F1535"/>
</svg>
