<svg width="23" height="23" viewBox="0 0 23 23" fill="none" xmlns="http://www.w3.org/2000/svg">
<circle cx="11.5" cy="11.5" r="11" stroke="#FFBD3B"/>
<path d="M10.2682 5.96297H13.1202L12.6448 12.9703H10.7435L10.2682 5.96297ZM11.6942 16.819C11.2751 16.819 10.9224 16.6861 10.6362 16.4203C10.3602 16.1443 10.2222 15.8121 10.2222 15.4236C10.2222 15.0352 10.3602 14.7132 10.6362 14.4576C10.9122 14.1919 11.2648 14.059 11.6942 14.059C12.1235 14.059 12.4762 14.1919 12.7522 14.4576C13.0282 14.7132 13.1662 15.0352 13.1662 15.4236C13.1662 15.8121 13.0231 16.1443 12.7368 16.4203C12.4608 16.6861 12.1133 16.819 11.6942 16.819Z" fill="#FFBD3B"/>
</svg>
