<svg width="151" height="42" viewBox="0 0 151 42" fill="none" xmlns="http://www.w3.org/2000/svg">
<path d="M18.4208 23.9391V39.1708L30.5511 36.8661V29.44C30.5511 29.127 30.8261 28.8899 31.1296 28.9278L32.6187 29.1554C32.8842 29.1839 33.0834 29.4115 33.0834 29.6676V38.2887C33.0834 38.5353 32.9127 38.744 32.6756 38.8009L19.3977 41.6556C18.7528 41.7979 18.0889 41.7979 17.4534 41.6556L4.30832 38.9052C4.07122 38.8578 3.9005 38.6491 3.89102 38.412L3.6634 29.6581C3.65391 29.3831 3.86256 29.146 4.13761 29.127L15.291 28.1501C15.4807 28.1311 15.6514 28.0079 15.7273 27.8277L17.406 23.7495C17.6336 23.2183 18.4208 23.3701 18.4208 23.9391Z" fill="#362A51"/>
<path d="M3.54921 18.9505L0.0495465 26.4335C-0.121169 26.8034 0.172841 27.2112 0.571177 27.1733L13.7163 25.8455C13.906 25.8265 14.0672 25.7127 14.1431 25.542L18.373 16.0104L3.92858 18.6659C3.75787 18.6944 3.6156 18.7987 3.54921 18.9505Z" fill="#FFBD3B"/>
<path d="M18.3726 16.0104L22.8491 25.836C22.925 26.0067 23.0957 26.1205 23.2854 26.1395L36.4115 27.1922C36.8098 27.2207 37.0944 26.8223 36.9237 26.4619L33.4999 18.9599C33.4335 18.8082 33.2912 18.6944 33.1205 18.6659L18.3726 16.0104Z" fill="#362A51"/>
<path d="M30.8638 0.257102C26.7856 1.3383 23.4756 5.53031 23.4756 9.60852C23.4756 13.6867 26.7856 16.1147 30.8638 15.0335C34.942 13.9523 38.252 9.76027 38.252 5.68206C38.252 1.60386 34.942 -0.824096 30.8638 0.257102ZM35.7956 8.09105C35.7956 8.36609 35.6438 8.66958 35.3972 8.86875C35.2834 8.96359 35.1506 9.02999 35.0273 9.06792C34.8851 9.10586 34.7428 9.10586 34.6195 9.05843L33.3297 8.59371V8.68855C33.3297 9.45677 32.7037 10.2345 31.945 10.4431L27.3262 11.6666C26.5674 11.8658 25.9415 11.4105 25.9415 10.6518V7.26592C25.9415 6.4977 26.5674 5.72 27.3262 5.51135L31.945 4.28789C32.7037 4.08872 33.3297 4.54396 33.3297 5.3027V5.39754L34.6195 4.24995C34.8566 4.04129 35.1601 3.95594 35.3972 4.02233C35.6438 4.08872 35.7956 4.30686 35.7956 4.59138V8.09105Z" fill="#FFBD3B"/>
<path d="M13.2608 5.09404C11.8382 7.74013 12.284 11.0406 14.2756 12.4443C16.2578 13.8574 19.0367 12.8521 20.4593 10.206C21.882 7.55993 21.4362 4.25943 19.4445 2.85577C17.4623 1.44263 14.6835 2.44795 13.2608 5.09404ZM19.435 5.0561C19.5678 5.15094 19.6437 5.34063 19.6247 5.54928C19.6152 5.64412 19.5868 5.73897 19.5394 5.82432C19.492 5.91917 19.4256 5.99504 19.3402 6.05194L18.4961 6.61151L18.5435 6.63996C18.9134 6.90552 18.9988 7.52199 18.7332 8.01517L17.1114 11.0122C16.8459 11.5054 16.3242 11.695 15.9543 11.4295L14.3041 10.2629C13.9342 9.99737 13.8489 9.3809 14.1144 8.88772L15.7362 5.89071C16.0018 5.39754 16.5234 5.20785 16.8933 5.47341L16.9407 5.50186L16.9976 4.39221C17.0071 4.18355 17.1114 3.99387 17.2632 3.88006C17.4149 3.76625 17.5951 3.75677 17.7279 3.85161L19.435 5.0561Z" fill="#FFBD3B"/>
<path d="M8.17762 15.4223C9.90374 15.7258 10.9186 14.3127 10.4443 12.2736C9.97013 10.2345 8.18711 8.31867 6.46098 8.01517C4.73486 7.71168 3.72005 9.12483 4.19426 11.1639C4.66847 13.203 6.45149 15.1094 8.17762 15.4223ZM5.02887 10.4621C5.00041 10.3198 5.02887 10.206 5.11422 10.1586C5.15216 10.1396 5.20907 10.1302 5.25649 10.1396C5.31339 10.1491 5.37978 10.1776 5.44617 10.225L6.08161 10.7277L6.07213 10.6802C5.98677 10.3009 6.17645 10.0353 6.49892 10.0922L8.45266 10.4431C8.77513 10.5 9.10707 10.8604 9.20191 11.2398L9.60025 12.9375C9.68561 13.3168 9.49592 13.5824 9.17346 13.5255L7.21972 13.1746C6.89725 13.1177 6.56531 12.7573 6.47046 12.3779L6.46098 12.3305L6.01522 12.634C5.92987 12.6909 5.80657 12.6719 5.68328 12.5866C5.55998 12.5012 5.47462 12.3589 5.43669 12.2167L5.02887 10.4621Z" fill="#FFBD3B"/>
<path d="M46.4937 16.4734H49.0449L51.4539 25.2937L53.8439 16.4924L56.3952 16.4734L58.8041 25.2937L61.2321 16.4734H63.7833L60.0181 29.3056H57.6281L55.1338 20.6465L52.6584 29.3056H50.2589L46.4937 16.4734Z" fill="#362A51"/>
<path d="M66.904 26.7543C67.2834 27.1242 67.805 27.3044 68.4594 27.3044C68.9336 27.3044 69.3415 27.2001 69.6829 26.9914C70.0243 26.7828 70.2804 26.4793 70.4606 26.0904L72.8885 26.7828C72.5281 27.6458 71.9686 28.3287 71.1909 28.8219C70.4132 29.315 69.5501 29.5616 68.6112 29.5616C67.6343 29.5616 66.7712 29.353 66.0125 28.9262C65.2538 28.5089 64.6563 27.9209 64.239 27.1621C63.8217 26.4034 63.6035 25.5593 63.6035 24.6014C63.6035 23.5676 63.8122 22.6571 64.22 21.8605C64.6278 21.0733 65.2063 20.4568 65.9366 20.03C66.6764 19.6032 67.5205 19.3851 68.4689 19.3851C69.3984 19.3851 70.2045 19.5937 70.8874 20.0016C71.5702 20.4094 72.0919 20.9974 72.4618 21.7561C72.8316 22.5149 73.0118 23.4064 73.0118 24.4307C73.0118 24.5729 73.0024 24.81 72.9739 25.142H66.1927C66.2875 25.8628 66.5246 26.3939 66.904 26.7543ZM66.2686 23.3684H70.508C70.4227 22.7235 70.2235 22.2588 69.9105 21.9648C69.5975 21.6708 69.1423 21.519 68.5637 21.519C67.2834 21.519 66.5152 22.1355 66.2686 23.3684Z" fill="#362A51"/>
<path d="M81.9549 20.0679C82.6472 20.5042 83.1784 21.1017 83.5577 21.8794C83.9371 22.6476 84.1268 23.5297 84.1268 24.4971C84.1268 25.455 83.9371 26.3275 83.5672 27.0957C83.1973 27.864 82.6662 28.4709 82.0023 28.9167C81.3289 29.353 80.5607 29.5806 79.6977 29.5806C78.6734 29.5806 77.8103 29.3056 77.099 28.765V29.315H74.9556V16.4734H77.4025V20.0016C78.0284 19.6127 78.7587 19.4135 79.5744 19.4135C80.4659 19.4135 81.2626 19.6317 81.9549 20.0679ZM80.9875 26.6026C81.3669 26.062 81.5566 25.3601 81.5566 24.4876C81.5566 23.634 81.3574 22.9322 80.9591 22.3821C80.5607 21.832 79.9727 21.5664 79.2045 21.5664C78.4837 21.5664 77.9431 21.8225 77.6017 22.3442C77.2602 22.8658 77.08 23.5771 77.08 24.4876C77.08 26.4413 77.8198 27.4087 79.2898 27.4087C80.0486 27.4182 80.6081 27.1432 80.9875 26.6026Z" fill="#362A51"/>
<path d="M86.2705 16.2079H88.6985V18.3513H86.2705V16.2079ZM86.2705 19.6791H88.6985V29.3056H86.2705V19.6791Z" fill="#362A51"/>
<path d="M99.6996 20.8836C100.155 21.8794 100.382 22.8848 100.382 23.9091V29.3151H97.9261V24.7721C97.9261 23.966 97.8028 23.2452 97.5562 22.6287C97.3096 22.0027 96.7405 21.6898 95.8585 21.6898C95.2989 21.6898 94.8152 21.8794 94.4169 22.2683C94.0091 22.6571 93.8099 23.3779 93.8099 24.4307V29.3151H91.3535V19.6886H93.5064V20.6844C94.2652 19.8309 95.3084 19.4041 96.6267 19.4041C98.2106 19.3946 99.2444 19.8878 99.6996 20.8836Z" fill="#362A51"/>
<path d="M110.702 22.145C110.749 22.4769 110.777 22.9037 110.777 23.4254V29.3056H108.653V28.1295C108.226 28.6417 107.752 29.0115 107.249 29.2392C106.737 29.4668 106.111 29.5806 105.381 29.5806C104.717 29.5806 104.139 29.4478 103.655 29.1917C103.171 28.9262 102.801 28.5753 102.545 28.139C102.299 27.7027 102.175 27.2096 102.175 26.6595C102.175 25.9576 102.337 25.3696 102.668 24.8859C102.991 24.4022 103.532 24.0229 104.281 23.7573C104.698 23.6056 105.21 23.4728 105.827 23.359C106.443 23.2452 107.297 23.1029 108.406 22.9417C108.35 22.4864 108.179 22.164 107.904 21.9553C107.629 21.7467 107.211 21.6423 106.642 21.6423C106.225 21.6423 105.836 21.7372 105.476 21.9269C105.115 22.1165 104.859 22.4105 104.717 22.8184L102.526 22.126C102.773 21.2914 103.247 20.637 103.93 20.1533C104.622 19.6696 105.523 19.4325 106.642 19.4325C108.53 19.4325 109.782 20.011 110.408 21.1776C110.55 21.4811 110.654 21.813 110.702 22.145ZM108.368 24.9049C107.562 25.0377 106.955 25.142 106.548 25.2368C106.14 25.3222 105.808 25.417 105.533 25.5119C105.172 25.6541 104.916 25.8154 104.764 25.9861C104.613 26.1568 104.537 26.3655 104.537 26.6215C104.537 26.9535 104.66 27.2095 104.907 27.3992C105.153 27.5794 105.476 27.6743 105.893 27.6743C106.472 27.6743 106.955 27.532 107.335 27.257C107.714 26.9819 107.98 26.6879 108.122 26.3939C108.264 26.0904 108.349 25.5972 108.368 24.9049Z" fill="#362A51"/>
<path d="M118.194 19.6412C118.327 19.6412 118.507 19.6506 118.744 19.6791V21.9458C118.526 21.8889 118.308 21.8605 118.071 21.8605C117.635 21.8605 117.227 21.9458 116.857 22.1071C116.43 22.3062 116.098 22.6002 115.88 22.9891C115.652 23.3779 115.539 23.8427 115.539 24.3927V29.315H113.101V19.6886H115.245V21.244C115.51 20.7793 115.851 20.4189 116.278 20.1533C116.809 19.8119 117.454 19.6412 118.194 19.6412Z" fill="#362A51"/>
<path d="M127.422 20.0679C128.115 20.5042 128.646 21.1017 129.025 21.8794C129.404 22.6476 129.594 23.5297 129.594 24.4971C129.594 25.455 129.404 26.3275 129.034 27.0957C128.665 27.864 128.133 28.4709 127.47 28.9167C126.796 29.353 126.028 29.5806 125.165 29.5806C124.141 29.5806 123.278 29.3056 122.566 28.765V29.315H120.423V16.4734H122.87V20.0016C123.496 19.6127 124.226 19.4135 125.042 19.4135C125.943 19.4135 126.739 19.6317 127.422 20.0679ZM126.464 26.6026C126.844 26.062 127.033 25.3601 127.033 24.4876C127.033 23.634 126.834 22.9322 126.436 22.3821C126.037 21.832 125.449 21.5664 124.681 21.5664C123.96 21.5664 123.42 21.8225 123.078 22.3442C122.737 22.8658 122.557 23.5771 122.557 24.4876C122.557 26.4413 123.297 27.4087 124.767 27.4087C125.516 27.4182 126.085 27.1432 126.464 26.6026Z" fill="#362A51"/>
<path d="M133.359 28.9262C132.62 28.4899 132.051 27.8924 131.643 27.1242C131.235 26.356 131.026 25.4834 131.026 24.4971C131.026 23.5107 131.235 22.6287 131.652 21.8605C132.07 21.0922 132.648 20.4852 133.378 20.0585C134.118 19.6317 134.953 19.4135 135.892 19.4135C136.84 19.4135 137.694 19.6317 138.434 20.0679C139.173 20.5042 139.752 21.1017 140.16 21.8699C140.567 22.6382 140.776 23.5107 140.776 24.4971C140.776 25.4834 140.567 26.3654 140.16 27.1337C139.752 27.9019 139.173 28.5089 138.434 28.9357C137.694 29.3625 136.84 29.5806 135.892 29.5806C134.943 29.5711 134.099 29.3625 133.359 28.9262ZM137.608 26.5456C138.007 26.0335 138.206 25.3506 138.206 24.4971C138.206 23.615 138.007 22.9322 137.608 22.4295C137.21 21.9268 136.641 21.6803 135.892 21.6803C135.124 21.6803 134.545 21.9363 134.166 22.439C133.786 22.9417 133.597 23.634 133.597 24.4971C133.597 25.3791 133.796 26.062 134.185 26.5646C134.573 27.0673 135.143 27.3139 135.892 27.3139C136.641 27.3139 137.21 27.0578 137.608 26.5456Z" fill="#362A51"/>
<path d="M144.75 24.4402L141.383 19.6791H144.237L146.163 22.5338L148.05 19.6791H150.905L147.538 24.4402L151 29.3056H148.135L146.153 26.3465L144.152 29.3056H141.297L144.75 24.4402Z" fill="#362A51"/>
</svg>
