<svg width="24" height="24" viewBox="0 0 24 24" fill="none" xmlns="http://www.w3.org/2000/svg">
<path d="M12 0C5.38317 0 0 5.38317 0 12C0 18.6168 5.38317 24 12 24C18.6168 24 24 18.6168 24 12C24 5.38317 18.6168 0 12 0ZM12 21.9718C6.50152 21.9718 2.02819 17.4985 2.02819 12C2.02819 6.50152 6.50152 2.02819 12 2.02819C17.4985 2.02819 21.9718 6.50152 21.9718 12C21.9718 17.4985 17.4985 21.9718 12 21.9718Z" fill="black"/>
<path d="M17.4423 11.6282H12.71V4.55511C12.71 3.99505 12.2559 3.54102 11.6959 3.54102C11.1358 3.54102 10.6818 3.99505 10.6818 4.55511V12.6422C10.6818 13.2023 11.1358 13.6563 11.6959 13.6563C11.7073 13.6563 11.7184 13.655 11.7297 13.6546C11.7409 13.655 11.752 13.6563 11.7634 13.6563H17.4423C18.0024 13.6563 18.4564 13.2023 18.4564 12.6422C18.4564 12.0822 18.0024 11.6282 17.4423 11.6282Z" fill="black"/>
</svg>
